# xmcd
#
# Track frame offsets:
#	150
#	22611
#	42468
#	60026
#	79625
#	95288
#	110109
#	125215
#	140669
#	160529
#	180431
#	196234
#	215732
#	235638
#	252297
#	270831
#	288730
#
# Disc length: 4092 seconds
#
# Revision: 0
# Processed by: cddbd v1.5.2PL0 Copyright (c) Steve Scherf et al.
# Submitted via: EasyCDDAExtractor 10.2.0.1
#
DISCID=e20ffa11
DTITLE=Various Artist - Latinos
DYEAR=1999
DGENRE=Latin
TTITLE0=Jose Feliciano - Alma Mia
TTITLE1=Enrique Iglesias - Nunca te olvidaré
TTITLE2=Rosana - Contigo
TTITLE3=Andrea Bocelli - Sempre, sempre
TTITLE4=Isabel Pantoja - Veneno
TTITLE5=Caetano Veloso - Capullito de Alelí
TTITLE6=Ismael Serrano - Ultimamente
TTITLE7=Pimpinela - Caliente, caliente
TTITLE8=Pablo Milanes - El primer beso
TTITLE9=Chris Duran - Te perdí
TTITLE10=Cristian - El deseo de oir tu voz
TTITLE11=Jordi - Desesperadamente enamorado
TTITLE12=Cae - Jóvenes enamorados
TTITLE13=Marco Antonio Solis - Desde que te perdí
TTITLE14=Pedro Fernandez - Mi forma de sentir
TTITLE15=Mijares - El privilegio de amar
TTITLE16=Los Temerarios - Por que te conocí
EXTD=
EXTT0=
EXTT1=
EXTT2=
EXTT3=
EXTT4=
EXTT5=
EXTT6=
EXTT7=
EXTT8=
EXTT9=
EXTT10=
EXTT11=
EXTT12=
EXTT13=
EXTT14=
EXTT15=
EXTT16=
PLAYORDER=
